<?xml version="1.0" standalone="no"?>
<!DOCTYPE svg PUBLIC "-//W3C//DTD SVG 20010904//EN"
 "http://www.w3.org/TR/2001/REC-SVG-20010904/DTD/svg10.dtd">
<svg version="1.0" xmlns="http://www.w3.org/2000/svg"
 width="512.000000pt" height="512.000000pt" viewBox="0 0 512.000000 512.000000"
 preserveAspectRatio="xMidYMid meet">

<g transform="translate(0.000000,512.000000) scale(0.100000,-0.100000)"
fill="#000000" stroke="none">
<path d="M2362 5109 c-360 -26 -749 -146 -1072 -331 -1006 -577 -1497 -1753
-1200 -2875 361 -1362 1762 -2174 3127 -1813 1362 361 2174 1762 1813 3127
-281 1059 -1198 1813 -2301 1892 -160 12 -202 12 -367 0z m505 -905 c328 -48
628 -200 869 -439 114 -114 186 -210 251 -339 43 -86 44 -90 27 -104 -23 -16
-410 -212 -421 -212 -5 0 -21 26 -38 58 -60 114 -123 199 -212 282 -512 481
-1304 345 -1617 -278 -49 -98 -91 -226 -112 -347 -24 -133 -24 -403 -1 -531
46 -256 155 -473 316 -635 129 -128 279 -214 456 -260 78 -21 113 -24 265 -24
165 1 180 3 260 29 172 57 306 141 435 270 98 99 154 177 213 298 20 43 40 78
45 78 13 0 447 -220 447 -227 0 -15 -106 -203 -153 -273 -72 -105 -282 -312
-392 -387 -298 -201 -631 -292 -977 -264 -75 6 -171 18 -214 26 -572 115
-1026 554 -1178 1137 -57 220 -75 549 -41 783 103 730 617 1266 1304 1360 134
18 343 18 468 -1z"/>
</g>
</svg>
